<svg width="22" height="23" viewBox="0 0 22 23" fill="none" xmlns="http://www.w3.org/2000/svg">
<path fill-rule="evenodd" clip-rule="evenodd" d="M6.86561 -0.000488281C7.27982 -0.000488281 7.61561 0.335298 7.61561 0.749512V2.0591L14.0191 2.0591L14.0521 2.0591L14.456 2.05921V0.749512C14.456 0.335298 14.7918 -0.000488281 15.206 -0.000488281C15.6202 -0.000488281 15.956 0.335298 15.956 0.749512V2.07611C16.2263 2.08455 16.4761 2.09719 16.7074 2.11608C17.4207 2.17437 18.0244 2.29598 18.5756 2.57681C19.4693 3.03221 20.196 3.75887 20.6514 4.65264C20.9322 5.20381 21.0538 5.80744 21.1121 6.52083C21.1691 7.21845 21.1691 8.08394 21.1691 9.17607V9.2091V14.949V14.982C21.1691 16.0742 21.1691 16.9397 21.1121 17.6373C21.0538 18.3507 20.9322 18.9543 20.6514 19.5055C20.196 20.3992 19.4693 21.1259 18.5756 21.5813C18.0244 21.8621 17.4208 21.9837 16.7074 22.042C16.0097 22.099 15.1442 22.099 14.0521 22.099H14.0191H8.05235H8.01933C6.92719 22.099 6.0617 22.099 5.36408 22.042C4.65069 21.9837 4.04706 21.8621 3.49589 21.5813C2.60212 21.1259 1.87546 20.3992 1.42006 19.5055C1.13923 18.9543 1.01762 18.3507 0.959332 17.6373C0.902334 16.9397 0.902338 16.0742 0.902344 14.982V14.949L0.902344 8.62554V8.60072V8.60071C0.902341 7.77593 0.902338 7.12224 0.935248 6.5916C0.968854 6.04973 1.03881 5.58668 1.20127 5.15066C1.68269 3.85857 2.70182 2.83944 3.9939 2.35802C4.42993 2.19556 4.89298 2.12561 5.43485 2.092C5.64205 2.07915 5.86802 2.07132 6.11561 2.06654V0.749512C6.11561 0.335298 6.45139 -0.000488281 6.86561 -0.000488281ZM14.456 3.55925V3.8395C14.456 4.25371 14.7918 4.5895 15.206 4.5895C15.6202 4.5895 15.956 4.25371 15.956 3.8395V3.57681C16.1849 3.58446 16.3932 3.59541 16.5852 3.6111C17.2058 3.66181 17.5901 3.75819 17.8946 3.91332C18.5061 4.22491 19.0033 4.7221 19.3149 5.33363C19.47 5.6381 19.5664 6.02235 19.6171 6.64298C19.6685 7.27236 19.6691 8.07662 19.6691 9.2091V14.949C19.6691 16.0815 19.6685 16.8858 19.6171 17.5151C19.5664 18.1358 19.47 18.52 19.3149 18.8245C19.0033 19.436 18.5061 19.9332 17.8946 20.2448C17.5901 20.3999 17.2058 20.4963 16.5852 20.547C15.9558 20.5984 15.1516 20.599 14.0191 20.599H8.05235C6.91987 20.599 6.11561 20.5984 5.48623 20.547C4.8656 20.4963 4.48135 20.3999 4.17687 20.2448C3.56535 19.9332 3.06816 19.436 2.75657 18.8245C2.60144 18.52 2.50506 18.1358 2.45435 17.5151C2.40293 16.8858 2.40234 16.0815 2.40234 14.949L2.40234 8.62554C2.40234 7.77043 2.40268 7.16321 2.43237 6.68445C2.4617 6.21161 2.51761 5.91395 2.60687 5.67437C2.93627 4.79031 3.63356 4.09302 4.51762 3.76362C4.7572 3.67436 5.05486 3.61845 5.5277 3.58912C5.70421 3.57818 5.89818 3.57122 6.11561 3.5668V3.8395C6.11561 4.25371 6.45139 4.5895 6.86561 4.5895C7.27982 4.5895 7.61561 4.25371 7.61561 3.8395V3.5591L14.0191 3.5591L14.456 3.55925ZM5.07277 7.95945C5.07277 7.54524 5.40855 7.20945 5.82277 7.20945L16.2487 7.20945C16.663 7.20945 16.9987 7.54524 16.9987 7.95945C16.9987 8.37367 16.663 8.70945 16.2487 8.70945L5.82277 8.70945C5.40855 8.70945 5.07277 8.37367 5.07277 7.95945ZM14.1638 16.4799C13.7496 16.4799 13.4138 16.8157 13.4138 17.2299C13.4138 17.6441 13.7496 17.9799 14.1638 17.9799H16.2482C16.6624 17.9799 16.9981 17.6441 16.9981 17.2299C16.9982 16.8157 16.6624 16.4799 16.2482 16.4799H14.1638Z" fill="#484851"/>
</svg>
