<svg width="23" height="20" viewBox="0 0 23 20" fill="none" xmlns="http://www.w3.org/2000/svg">
<path fill-rule="evenodd" clip-rule="evenodd" d="M14.33 3.43981C15.1659 2.81287 15.7517 2.37451 16.2138 2.08957C16.6856 1.79862 16.9076 1.74762 17.026 1.75008C17.4011 1.75788 17.7529 1.93377 17.9842 2.22919C18.0572 2.32242 18.1496 2.53062 18.1999 3.08265C18.2493 3.62331 18.25 4.35491 18.25 5.39981V5.99984L18.25 11.9998L18.25 12.5998C18.25 13.6447 18.2493 14.3763 18.1999 14.917C18.1496 15.469 18.0572 15.6772 17.9842 15.7704C17.7529 16.0659 17.4011 16.2417 17.026 16.2495C16.9076 16.252 16.6856 16.201 16.2138 15.9101C15.7517 15.6251 15.1659 15.1868 14.33 14.5598L11.75 12.6248L11.75 5.37481L14.33 3.43981ZM19.75 12.6748C19.75 13.655 19.7493 14.4436 19.6937 15.0532C19.6378 15.6669 19.5175 16.2453 19.1652 16.6952C18.6563 17.3451 17.8824 17.7321 17.0572 17.7492C16.4859 17.7611 15.951 17.5103 15.4265 17.1868C14.8991 16.8617 14.2588 16.3814 13.4614 15.7833L13.4613 15.7833L13.4612 15.7832L13.43 15.7598L10.7502 13.75H8.75V17.5001C8.75 18.7427 7.74264 19.7501 6.5 19.7501C5.25736 19.7501 4.25 18.7427 4.25 17.5001L4.25 13.6911C1.98301 13.3315 0.25 11.3681 0.25 8.99998C0.25 6.37663 2.37665 4.24998 5 4.24998L10.7498 4.24998L13.43 2.23981L13.4612 2.21639C14.2587 1.61828 14.8991 1.13799 15.4265 0.81278C15.951 0.489339 16.4859 0.238527 17.0572 0.250405C17.8824 0.267563 18.6563 0.654519 19.1652 1.30444C19.5175 1.75436 19.6378 2.33271 19.6937 2.94641C19.7493 3.55603 19.75 4.34469 19.75 5.32486C21.4617 5.67231 22.75 7.18562 22.75 8.99984C22.75 10.8141 21.4617 12.3274 19.75 12.6748ZM19.75 11.1218C20.6239 10.8129 21.25 9.97951 21.25 8.99984C21.25 8.02018 20.6239 7.18675 19.75 6.87787V11.1218ZM10.25 12.25L10.25 5.74998L5 5.74998C3.20507 5.74998 1.75 7.20506 1.75 8.99998C1.75 10.7949 3.20508 12.25 5 12.25L10.25 12.25ZM5.75 13.7501L5.75 17.5001C5.75 17.9143 6.08579 18.2501 6.5 18.2501C6.91422 18.2501 7.25 17.9143 7.25 17.5001L7.25 13.7501H5.75Z" fill="#484851"/>
</svg>
