<svg width="20" height="20" viewBox="0 0 20 20" fill="none" xmlns="http://www.w3.org/2000/svg">
<path fill-rule="evenodd" clip-rule="evenodd" d="M0.623556 0.351317C0.854792 0.217126 1.13998 0.216174 1.3721 0.348818L4.5 2.13619L7.6279 0.348818C7.85847 0.217061 8.14153 0.217061 8.3721 0.348818L11.5 2.13619L14.6279 0.348818C14.86 0.216174 15.1452 0.217126 15.3764 0.351317C15.6077 0.485509 15.75 0.732647 15.75 1L15.75 9.25H19C19.4142 9.25 19.75 9.58579 19.75 10L19.75 17C19.75 18.5188 18.5188 19.75 17 19.75L5.8 19.75H5.76788C4.95505 19.75 4.29944 19.75 3.76853 19.7066C3.2219 19.662 2.74175 19.5676 2.29754 19.3413C1.59193 18.9818 1.01825 18.4081 0.658726 17.7025C0.432386 17.2582 0.338026 16.7781 0.293364 16.2315C0.249987 15.7006 0.249993 15.045 0.25 14.2321V14.2321V14.2L0.25 1C0.25 0.732647 0.392319 0.485509 0.623556 0.351317ZM17 18.25C17.6904 18.25 18.25 17.6904 18.25 17L18.25 10.75H15.75V17C15.75 17.6904 16.3096 18.25 17 18.25ZM14.5499 18.25H5.8C4.94755 18.25 4.35331 18.2494 3.89068 18.2116C3.43681 18.1745 3.17604 18.1054 2.97852 18.0048C2.55516 17.7891 2.21095 17.4448 1.99524 17.0215C1.8946 16.824 1.82547 16.5632 1.78838 16.1093C1.75058 15.6467 1.75 15.0525 1.75 14.2L1.75 2.29238L4.1279 3.65118C4.35847 3.78294 4.64153 3.78294 4.8721 3.65118L8 1.86381L11.1279 3.65118C11.3585 3.78294 11.6415 3.78294 11.8721 3.65118L14.25 2.29239L14.25 10V17C14.25 17.4501 14.3581 17.875 14.5499 18.25ZM4.25 7C4.25 6.58579 4.58579 6.25 5 6.25H9C9.41421 6.25 9.75 6.58579 9.75 7C9.75 7.41421 9.41421 7.75 9 7.75H5C4.58579 7.75 4.25 7.41421 4.25 7ZM8 10.25C7.58579 10.25 7.25 10.5858 7.25 11C7.25 11.4142 7.58579 11.75 8 11.75L11 11.75C11.4142 11.75 11.75 11.4142 11.75 11C11.75 10.5858 11.4142 10.25 11 10.25L8 10.25ZM7.25 15C7.25 14.5858 7.58579 14.25 8 14.25L11 14.25C11.4142 14.25 11.75 14.5858 11.75 15C11.75 15.4142 11.4142 15.75 11 15.75L8 15.75C7.58579 15.75 7.25 15.4142 7.25 15ZM6 11C6 11.5523 5.55229 12 5 12C4.44772 12 4 11.5523 4 11C4 10.4477 4.44772 10 5 10C5.55229 10 6 10.4477 6 11ZM5 16C5.55229 16 6 15.5523 6 15C6 14.4477 5.55229 14 5 14C4.44772 14 4 14.4477 4 15C4 15.5523 4.44772 16 5 16Z" fill="#484851"/>
</svg>
