<svg width="28" height="28" viewBox="0 0 28 28" fill="none" xmlns="http://www.w3.org/2000/svg">
<path d="M21 22.75C21 23.6783 20.6313 24.5685 19.9749 25.2249C19.3185 25.8813 18.4283 26.25 17.5 26.25H5.25C4.32174 26.25 3.4315 25.8813 2.77513 25.2249C2.11875 24.5685 1.75 23.6783 1.75 22.75V10.5C1.75 9.57174 2.11875 8.6815 2.77513 8.02513C3.4315 7.36875 4.32174 7 5.25 7V8.75C4.78587 8.75 4.34075 8.93437 4.01256 9.26256C3.68437 9.59075 3.5 10.0359 3.5 10.5V22.75C3.5 23.2141 3.68437 23.6592 4.01256 23.9874C4.34075 24.3156 4.78587 24.5 5.25 24.5H17.5C17.9641 24.5 18.4092 24.3156 18.7374 23.9874C19.0656 23.6592 19.25 23.2141 19.25 22.75H21Z" fill="url(#paint0_linear_3_1647)"/>
<path d="M10.5 3.5C10.0359 3.5 9.59075 3.68437 9.26256 4.01256C8.93437 4.34075 8.75 4.78587 8.75 5.25V17.5C8.75 17.9641 8.93437 18.4092 9.26256 18.7374C9.59075 19.0656 10.0359 19.25 10.5 19.25H22.75C23.2141 19.25 23.6592 19.0656 23.9874 18.7374C24.3156 18.4092 24.5 17.9641 24.5 17.5V5.25C24.5 4.78587 24.3156 4.34075 23.9874 4.01256C23.6592 3.68437 23.2141 3.5 22.75 3.5H10.5ZM10.5 1.75H22.75C23.6783 1.75 24.5685 2.11875 25.2249 2.77513C25.8813 3.4315 26.25 4.32174 26.25 5.25V17.5C26.25 18.4283 25.8813 19.3185 25.2249 19.9749C24.5685 20.6313 23.6783 21 22.75 21H10.5C9.57174 21 8.6815 20.6313 8.02513 19.9749C7.36875 19.3185 7 18.4283 7 17.5V5.25C7 4.32174 7.36875 3.4315 8.02513 2.77513C8.6815 2.11875 9.57174 1.75 10.5 1.75Z" fill="url(#paint1_linear_3_1647)"/>
<defs>
<linearGradient id="paint0_linear_3_1647" x1="1.75" y1="7.48335" x2="26.1846" y2="13.9658" gradientUnits="userSpaceOnUse">
<stop stop-color="#DF3C73"/>
<stop offset="1" stop-color="#F69C51"/>
</linearGradient>
<linearGradient id="paint1_linear_3_1647" x1="7" y1="2.23335" x2="31.4346" y2="8.71582" gradientUnits="userSpaceOnUse">
<stop stop-color="#DF3C73"/>
<stop offset="1" stop-color="#F69C51"/>
</linearGradient>
</defs>
</svg>
