<svg width="21" height="22" viewBox="0 0 21 22" fill="none" xmlns="http://www.w3.org/2000/svg">
<path fill-rule="evenodd" clip-rule="evenodd" d="M13.325 3.25001C13.6725 1.53832 15.1858 0.250003 17 0.250003C19.0711 0.250003 20.75 1.92894 20.75 4C20.75 6.07107 19.0711 7.75 17 7.75C15.1858 7.75 13.6725 6.46168 13.325 4.75001L8 4.75001C6.43146 4.75001 5.12245 5.86118 4.8172 7.3393C6.49529 7.71226 7.75 9.2096 7.75 11C7.75 12.7904 6.49529 14.2877 4.8172 14.6607C5.12244 16.1388 6.43145 17.25 7.99999 17.25L13.325 17.25C13.6725 15.5383 15.1858 14.25 17 14.25C19.0711 14.25 20.75 15.9289 20.75 18C20.75 20.0711 19.0711 21.75 17 21.75C15.1858 21.75 13.6725 20.4617 13.325 18.75L7.99999 18.75C5.60911 18.75 3.63081 16.9836 3.29896 14.6846C1.56295 14.3563 0.249998 12.8315 0.249998 11C0.249998 9.16852 1.56295 7.6437 3.29896 7.31541C3.63081 5.01644 5.60912 3.25001 8 3.25001L13.325 3.25001ZM17 1.75C15.7574 1.75 14.75 2.75736 14.75 4C14.75 5.24264 15.7574 6.25 17 6.25C18.2426 6.25 19.25 5.24264 19.25 4C19.25 2.75736 18.2426 1.75 17 1.75ZM4 8.75C2.75736 8.75 1.75 9.75736 1.75 11C1.75 12.2426 2.75736 13.25 4 13.25C5.24264 13.25 6.25 12.2426 6.25 11C6.25 9.75736 5.24264 8.75 4 8.75ZM14.75 18C14.75 16.7574 15.7574 15.75 17 15.75C18.2426 15.75 19.25 16.7574 19.25 18C19.25 19.2426 18.2426 20.25 17 20.25C15.7574 20.25 14.75 19.2426 14.75 18Z" fill="#484851"/>
</svg>
