<svg width="20" height="20" viewBox="0 0 20 20" fill="none" xmlns="http://www.w3.org/2000/svg">
<path fill-rule="evenodd" clip-rule="evenodd" d="M4.2 0.25H4.16957H4.16955C3.6354 0.24999 3.18956 0.249982 2.82533 0.27974C2.44545 0.310778 2.08879 0.377889 1.75153 0.549733C1.23408 0.813385 0.813385 1.23408 0.549733 1.75153C0.377889 2.08879 0.310778 2.44545 0.27974 2.82533C0.249982 3.18956 0.24999 3.6354 0.25 4.16955V4.16957V4.2L0.25 15.8V15.8304V15.8305C0.24999 16.3646 0.249982 16.8104 0.27974 17.1747C0.310778 17.5546 0.377889 17.9112 0.549733 18.2485C0.813385 18.7659 1.23408 19.1866 1.75153 19.4503C2.08879 19.6221 2.44545 19.6892 2.82533 19.7203C3.18956 19.75 3.6354 19.75 4.16955 19.75H4.2H4.99829L5 19.75L5.8 19.75H5.83045H15.8H15.8305C16.3646 19.75 16.8104 19.75 17.1747 19.7203C17.5546 19.6892 17.9112 19.6221 18.2485 19.4503C18.7659 19.1866 19.1866 18.7659 19.4503 18.2485C19.6221 17.9112 19.6892 17.5546 19.7203 17.1747C19.75 16.8104 19.75 16.3646 19.75 15.8305V15.8V14.2V14.1695C19.75 13.6354 19.75 13.1896 19.7203 12.8253C19.6892 12.4454 19.6221 12.0888 19.4503 11.7515C19.1866 11.2341 18.7659 10.8134 18.2485 10.5497C17.9112 10.3779 17.5546 10.3108 17.1747 10.2797C17.0586 10.2703 16.9342 10.2638 16.8013 10.2594L17.7675 9.29319L17.789 9.27168C18.1667 8.89396 18.482 8.57869 18.7185 8.30008C18.9652 8.0095 19.1699 7.70984 19.2869 7.34983C19.4664 6.79749 19.4664 6.20251 19.2869 5.65018C19.1699 5.29018 18.9651 4.99053 18.7184 4.69996C18.4819 4.42139 18.1666 4.10616 17.7889 3.7285L17.7888 3.72841L17.7673 3.7069L16.7925 2.73219L16.771 2.71068L16.7709 2.71064C16.3933 2.33298 16.078 2.01774 15.7994 1.78126C15.5088 1.53461 15.2092 1.32989 14.8492 1.21294C14.2969 1.03351 13.7019 1.03353 13.1496 1.21301C12.7897 1.32999 12.49 1.53473 12.1995 1.7814C11.9209 2.01791 11.6056 2.33317 11.228 2.71088L11.228 2.71089L11.2064 2.73241L9.75 4.18892V4.16955V4.16951C9.75001 3.63538 9.75002 3.18955 9.72026 2.82533C9.68922 2.44545 9.62211 2.08879 9.45027 1.75153C9.18662 1.23408 8.76592 0.813385 8.24848 0.549733C7.91121 0.377889 7.55456 0.310778 7.17467 0.27974C6.81044 0.249982 6.3646 0.24999 5.83046 0.25H5.83044H5.8L4.2 0.25ZM8.25 6.00005C8.25 5.99978 8.25 5.99951 8.25 5.99924V4.2C8.25 3.62757 8.24942 3.24336 8.22524 2.94748C8.20179 2.66036 8.1599 2.52307 8.11376 2.43251C7.99392 2.19731 7.80269 2.00608 7.56749 1.88624C7.47693 1.8401 7.33965 1.79822 7.05252 1.77476C6.75664 1.75058 6.37243 1.75 5.8 1.75L4.2 1.75C3.62757 1.75 3.24336 1.75058 2.94748 1.77476C2.66036 1.79822 2.52307 1.8401 2.43251 1.88624C2.19731 2.00608 2.00608 2.19731 1.88624 2.43251C1.8401 2.52307 1.79822 2.66036 1.77476 2.94748C1.75058 3.24336 1.75 3.62757 1.75 4.2L1.75 15.8C1.75 16.3724 1.75058 16.7566 1.77476 17.0525C1.79822 17.3396 1.8401 17.4769 1.88624 17.5675C2.00608 17.8027 2.19731 17.9939 2.43251 18.1138C2.52307 18.1599 2.66036 18.2018 2.94748 18.2252C3.24336 18.2494 3.62757 18.25 4.2 18.25L5 18.25L5.8 18.25C6.37243 18.25 6.75664 18.2494 7.05252 18.2252C7.33965 18.2018 7.47693 18.1599 7.56749 18.1138C7.80269 17.9939 7.99392 17.8027 8.11376 17.5675C8.1599 17.4769 8.20179 17.3396 8.22524 17.0525C8.24942 16.7566 8.25 16.3724 8.25 15.8L8.25 6.00005ZM9.75 6.31029L12.2671 3.79305C12.6719 3.38828 12.944 3.11701 13.1703 2.92489C13.3899 2.73845 13.5165 2.67099 13.6132 2.63958C13.8643 2.558 14.1347 2.55799 14.3857 2.63955C14.4824 2.67095 14.6091 2.7384 14.8287 2.92482C15.055 3.11693 15.3271 3.38818 15.7319 3.79291L16.7067 4.76762C17.1115 5.17238 17.3828 5.44448 17.575 5.67079C17.7614 5.89041 17.8289 6.0171 17.8603 6.11376C17.9419 6.36482 17.9419 6.63527 17.8603 6.88633C17.8289 6.983 17.7615 7.10969 17.575 7.32932C17.3829 7.55564 17.1116 7.82775 16.7068 8.23254L9.75 15.1893L9.75 6.31029ZM9.70189 17.3588C9.66454 17.6704 9.59408 17.9662 9.45027 18.2485L9.44949 18.25L15.8 18.25C16.3724 18.25 16.7566 18.2494 17.0525 18.2252C17.3396 18.2018 17.4769 18.1599 17.5675 18.1138C17.8027 17.9939 17.9939 17.8027 18.1138 17.5675C18.1599 17.4769 18.2018 17.3396 18.2252 17.0525C18.2494 16.7566 18.25 16.3724 18.25 15.8V14.2C18.25 13.6276 18.2494 13.2434 18.2252 12.9475C18.2018 12.6604 18.1599 12.5231 18.1138 12.4325C17.9939 12.1973 17.8027 12.0061 17.5675 11.8862C17.4769 11.8401 17.3396 11.7982 17.0525 11.7748C16.7566 11.7506 16.3724 11.75 15.8 11.75H15.3107L9.70189 17.3588ZM6 15C6 15.5523 5.55229 16 5 16C4.44772 16 4 15.5523 4 15C4 14.4477 4.44772 14 5 14C5.55229 14 6 14.4477 6 15Z" fill="#484851"/>
</svg>
