<svg width="22" height="20" viewBox="0 0 22 20" fill="none" xmlns="http://www.w3.org/2000/svg">
<path fill-rule="evenodd" clip-rule="evenodd" d="M8.8 0.25H8.76789H8.76788C7.95505 0.249993 7.29944 0.249987 6.76853 0.293364C6.2219 0.338026 5.74175 0.432386 5.29754 0.658726C4.59193 1.01825 4.01825 1.59193 3.65873 2.29754C3.50638 2.59653 3.41383 2.91181 3.35597 3.25268C3.17206 3.2553 3.00523 3.2605 2.85464 3.27077C2.53754 3.29241 2.23801 3.33905 1.94762 3.45933C1.27379 3.73844 0.73844 4.27379 0.459332 4.94762C0.339049 5.23801 0.292406 5.53754 0.270771 5.85464C0.249987 6.15925 0.249993 6.53028 0.25 6.97474V6.97475L0.25 7L0.25 13V13.0253V13.0253C0.249993 13.4697 0.249987 13.8408 0.270771 14.1454C0.292406 14.4625 0.339049 14.762 0.459332 15.0524C0.73844 15.7262 1.27379 16.2616 1.94762 16.5407C2.23801 16.661 2.53754 16.7076 2.85464 16.7292C3.00523 16.7395 3.17206 16.7447 3.35597 16.7473C3.41382 17.0882 3.50638 17.4035 3.65873 17.7025C4.01825 18.4081 4.59193 18.9817 5.29754 19.3413C5.74175 19.5676 6.2219 19.662 6.76853 19.7066C7.29944 19.75 7.95505 19.75 8.76788 19.75H8.8H13.2H13.2321C14.045 19.75 14.7006 19.75 15.2315 19.7066C15.7781 19.662 16.2582 19.5676 16.7025 19.3413C17.4081 18.9817 17.9818 18.4081 18.3413 17.7025C18.4936 17.4035 18.5862 17.0882 18.644 16.7473C18.8279 16.7447 18.9948 16.7395 19.1454 16.7292C19.4625 16.7076 19.762 16.661 20.0524 16.5407C20.7262 16.2616 21.2616 15.7262 21.5407 15.0524C21.661 14.762 21.7076 14.4625 21.7292 14.1454C21.75 13.8408 21.75 13.4697 21.75 13.0253V13V7V6.97475C21.75 6.53029 21.75 6.15925 21.7292 5.85464C21.7076 5.53754 21.661 5.23801 21.5407 4.94762C21.2616 4.27379 20.7262 3.73844 20.0524 3.45933C19.762 3.33905 19.4625 3.29241 19.1454 3.27077C18.9948 3.2605 18.8279 3.2553 18.644 3.25268C18.5862 2.91181 18.4936 2.59653 18.3413 2.29754C17.9818 1.59193 17.4081 1.01825 16.7025 0.658726C16.2582 0.432386 15.7781 0.338026 15.2315 0.293364C14.7006 0.249987 14.045 0.249993 13.2321 0.25H13.2321H13.2L8.8 0.25ZM18.7459 4.75476C18.75 5.06207 18.75 5.39876 18.75 5.76788V5.8V14.2V14.2321C18.75 14.6012 18.75 14.9379 18.7459 15.2452C18.8569 15.2427 18.9547 15.2388 19.0433 15.2327C19.284 15.2163 19.4012 15.1868 19.4784 15.1549C19.7846 15.028 20.028 14.7846 20.1549 14.4784C20.1868 14.4012 20.2163 14.284 20.2327 14.0433C20.2496 13.7958 20.25 13.4762 20.25 13V7C20.25 6.5238 20.2496 6.20421 20.2327 5.95674C20.2163 5.71602 20.1868 5.5988 20.1549 5.52165C20.028 5.21536 19.7846 4.97202 19.4784 4.84515C19.4012 4.81319 19.284 4.78372 19.0433 4.76729C18.9547 4.76125 18.8569 4.75732 18.7459 4.75476ZM2.95674 4.76729C3.04532 4.76125 3.14313 4.75732 3.25405 4.75476C3.24999 5.06207 3.25 5.39877 3.25 5.76788V5.7679L3.25 5.8L3.25 14.2L3.25 14.2321V14.2321C3.25 14.6012 3.24999 14.9379 3.25405 15.2452C3.14313 15.2427 3.04532 15.2388 2.95674 15.2327C2.71602 15.2163 2.5988 15.1868 2.52165 15.1549C2.21536 15.028 1.97202 14.7846 1.84515 14.4784C1.81319 14.4012 1.78372 14.284 1.76729 14.0433C1.75041 13.7958 1.75 13.4762 1.75 13L1.75 7C1.75 6.5238 1.75041 6.20421 1.76729 5.95674C1.78372 5.71602 1.81319 5.5988 1.84515 5.52165C1.97202 5.21536 2.21536 4.97202 2.52165 4.84515C2.5988 4.81319 2.71602 4.78372 2.95674 4.76729ZM5.97852 1.99524C6.17604 1.8946 6.4368 1.82547 6.89068 1.78838C7.35331 1.75058 7.94755 1.75 8.8 1.75L13.2 1.75C14.0525 1.75 14.6467 1.75058 15.1093 1.78838C15.5632 1.82547 15.824 1.8946 16.0215 1.99524C16.4448 2.21095 16.7891 2.55516 17.0048 2.97852C17.1054 3.17604 17.1745 3.43681 17.2116 3.89068C17.2494 4.35331 17.25 4.94755 17.25 5.8V14.2C17.25 15.0525 17.2494 15.6467 17.2116 16.1093C17.1745 16.5632 17.1054 16.824 17.0048 17.0215C16.7891 17.4448 16.4448 17.789 16.0215 18.0048C15.824 18.1054 15.5632 18.1745 15.1093 18.2116C14.6467 18.2494 14.0525 18.25 13.2 18.25H8.8C7.94755 18.25 7.35331 18.2494 6.89068 18.2116C6.4368 18.1745 6.17604 18.1054 5.97852 18.0048C5.55516 17.789 5.21095 17.4448 4.99524 17.0215C4.8946 16.824 4.82547 16.5632 4.78838 16.1093C4.75058 15.6467 4.75 15.0525 4.75 14.2L4.75 5.8C4.75 4.94755 4.75058 4.35331 4.78838 3.89068C4.82547 3.43681 4.8946 3.17604 4.99524 2.97852C5.21095 2.55516 5.55516 2.21095 5.97852 1.99524ZM8 4.25C7.58579 4.25 7.25 4.58579 7.25 5C7.25 5.41421 7.58579 5.75 8 5.75L14 5.75C14.4142 5.75 14.75 5.41421 14.75 5C14.75 4.58579 14.4142 4.25 14 4.25L8 4.25ZM7.25 9C7.25 8.58578 7.58579 8.25 8 8.25H12C12.4142 8.25 12.75 8.58578 12.75 9C12.75 9.41421 12.4142 9.75 12 9.75L8 9.75C7.58579 9.75 7.25 9.41421 7.25 9ZM8 12.25C7.58579 12.25 7.25 12.5858 7.25 13C7.25 13.4142 7.58579 13.75 8 13.75L10 13.75C10.4142 13.75 10.75 13.4142 10.75 13C10.75 12.5858 10.4142 12.25 10 12.25L8 12.25Z" fill="#484851"/>
</svg>
