<svg width="42" height="42" viewBox="0 0 42 42" fill="none" xmlns="http://www.w3.org/2000/svg">
<circle cx="21" cy="21" r="21" fill="#ECECF2"/>
<path d="M21.0001 21.0002C21.4603 21.0002 21.8334 20.6271 21.8334 20.1668C21.8334 19.7066 21.4603 19.3335 21.0001 19.3335C20.5398 19.3335 20.1667 19.7066 20.1667 20.1668C20.1667 20.6271 20.5398 21.0002 21.0001 21.0002Z" fill="#484851"/>
<path d="M24.3333 21.0002C24.7936 21.0002 25.1667 20.6271 25.1667 20.1668C25.1667 19.7066 24.7936 19.3335 24.3333 19.3335C23.8731 19.3335 23.5 19.7066 23.5 20.1668C23.5 20.6271 23.8731 21.0002 24.3333 21.0002Z" fill="#484851"/>
<path d="M17.6666 21.0002C18.1268 21.0002 18.4999 20.6271 18.4999 20.1668C18.4999 19.7066 18.1268 19.3335 17.6666 19.3335C17.2063 19.3335 16.8333 19.7066 16.8333 20.1668C16.8333 20.6271 17.2063 21.0002 17.6666 21.0002Z" fill="#484851"/>
<path d="M26.8334 13.5H15.1667C14.5037 13.5 13.8678 13.7634 13.399 14.2322C12.9301 14.7011 12.6667 15.337 12.6667 16V28.5C12.667 28.6477 12.7065 28.7926 12.7812 28.92C12.8558 29.0474 12.963 29.1526 13.0917 29.225C13.2163 29.2956 13.3569 29.3329 13.5001 29.3333C13.6497 29.3333 13.7965 29.293 13.9251 29.2167L17.6667 26.95C17.8051 26.8677 17.9642 26.8271 18.1251 26.8333H26.8334C27.4965 26.8333 28.1323 26.5699 28.6012 26.1011C29.07 25.6323 29.3334 24.9964 29.3334 24.3333V16C29.3334 15.337 29.07 14.7011 28.6012 14.2322C28.1323 13.7634 27.4965 13.5 26.8334 13.5ZM27.6667 24.3333C27.6667 24.5543 27.579 24.7663 27.4227 24.9226C27.2664 25.0789 27.0544 25.1667 26.8334 25.1667H18.1251C17.6699 25.1663 17.2233 25.2902 16.8334 25.525L14.3334 27.025V16C14.3334 15.779 14.4212 15.567 14.5775 15.4107C14.7338 15.2545 14.9457 15.1667 15.1667 15.1667H26.8334C27.0544 15.1667 27.2664 15.2545 27.4227 15.4107C27.579 15.567 27.6667 15.779 27.6667 16V24.3333Z" fill="#484851"/>
</svg>
