<svg width="20" height="22" viewBox="0 0 20 22" fill="none" xmlns="http://www.w3.org/2000/svg">
<path fill-rule="evenodd" clip-rule="evenodd" d="M6.00005 0.25C6.41426 0.25 6.75005 0.585786 6.75005 1V2.25L12.6 2.25L12.6331 2.25H12.6331H12.6332C12.8474 2.25 13.0528 2.25 13.25 2.25043V1C13.25 0.585786 13.5858 0.25 14 0.25C14.4143 0.25 14.75 0.585786 14.75 1V2.27475C14.9399 2.28269 15.1191 2.29316 15.2883 2.30699C16.0017 2.36527 16.6053 2.48688 17.1565 2.76772C18.0503 3.22312 18.7769 3.94978 19.2323 4.84354C19.5132 5.39472 19.6348 5.99834 19.6931 6.71173C19.7501 7.40935 19.7501 8.27485 19.75 9.36698V9.4V14.6V14.633C19.7501 15.7252 19.7501 16.5906 19.6931 17.2883C19.6348 18.0017 19.5132 18.6053 19.2323 19.1565C18.7769 20.0502 18.0503 20.7769 17.1565 21.2323C16.6053 21.5131 16.0017 21.6347 15.2883 21.693C14.5907 21.75 13.7252 21.75 12.6331 21.75H12.6H7.40005H7.36703C6.27489 21.75 5.4094 21.75 4.71178 21.693C3.99839 21.6347 3.39477 21.5131 2.84359 21.2323C1.94982 20.7769 1.22317 20.0502 0.767769 19.1565C0.486931 18.6053 0.365323 18.0017 0.307037 17.2883C0.250039 16.5906 0.250044 15.7251 0.250049 14.633L0.25005 14.6L0.25005 8.64706L0.250024 8.48999C0.249688 7.10812 0.249474 6.22688 0.496287 5.49049C0.969665 4.07812 2.07817 2.96962 3.49054 2.49624C3.97879 2.33259 4.53073 2.27754 5.25005 2.25912V1C5.25005 0.585786 5.58584 0.25 6.00005 0.25ZM13.25 3.75049V4C13.25 4.41421 13.5858 4.75 14 4.75C14.4143 4.75 14.75 4.41421 14.75 4V3.7761C14.8972 3.78284 15.0355 3.79133 15.1662 3.80201C15.7868 3.85271 16.171 3.94909 16.4755 4.10423C17.087 4.41582 17.5842 4.913 17.8958 5.52453C18.051 5.829 18.1473 6.21325 18.198 6.83388C18.2495 7.46326 18.25 8.26752 18.25 9.4V14.6C18.25 15.7325 18.2495 16.5367 18.198 17.1661C18.1473 17.7867 18.051 18.171 17.8958 18.4755C17.5842 19.087 17.087 19.5842 16.4755 19.8958C16.171 20.0509 15.7868 20.1473 15.1662 20.198C14.5368 20.2494 13.7325 20.25 12.6 20.25H7.40005C6.26757 20.25 5.46331 20.2494 4.83393 20.198C4.2133 20.1473 3.82905 20.0509 3.52458 19.8958C2.91305 19.5842 2.41587 19.087 2.10428 18.4755C1.94914 18.171 1.85276 17.7867 1.80206 17.1661C1.75063 16.5367 1.75005 15.7325 1.75005 14.6L1.75005 8.64706C1.75005 7.05384 1.75985 6.44061 1.91853 5.96718C2.24242 5.00082 3.00087 4.24237 3.96723 3.91848C4.26733 3.81789 4.6236 3.77713 5.25005 3.76077V4C5.25005 4.41421 5.58584 4.75 6.00005 4.75C6.41426 4.75 6.75005 4.41421 6.75005 4V3.75L12.6 3.75C12.8298 3.75 13.046 3.75002 13.25 3.75049ZM4.25006 8C4.25006 7.58579 4.58585 7.25 5.00006 7.25L15.0001 7.25C15.4143 7.25 15.7501 7.58579 15.7501 8C15.7501 8.41421 15.4143 8.75 15.0001 8.75L5.00006 8.75C4.58585 8.75 4.25006 8.41421 4.25006 8ZM13 16.25C12.5858 16.25 12.25 16.5858 12.25 17C12.25 17.4142 12.5858 17.75 13 17.75H15C15.4143 17.75 15.75 17.4142 15.75 17C15.75 16.5858 15.4143 16.25 15 16.25H13Z" fill="#484851"/>
</svg>
